<svg width="512" height="512" viewBox="0 0 512 512" fill="none" xmlns="http://www.w3.org/2000/svg" role="img" aria-labelledby="title desc">
  <title id="title">PagedNet icon</title>
  <desc id="desc">Abstract stacked pages with a forward deployment arrow cut out.</desc>
  <defs>
    <linearGradient id="g" x1="64" y1="56" x2="452" y2="454" gradientUnits="userSpaceOnUse">
      <stop offset="0" stop-color="#22D3EE"/>
      <stop offset="0.48" stop-color="#3B82F6"/>
      <stop offset="1" stop-color="#7C3AED"/>
    </linearGradient>
  </defs>
  <path d="M408.45 110.23 L401.10 108.23 L389.06 108.23 L370.34 116.25 L209.86 198.50 L197.16 208.53 L189.13 221.90 L187.13 229.25 L187.80 394.41 L190.47 394.41 L292.78 290.77 L292.78 288.10 L263.36 270.71 L261.35 268.04 L262.69 266.03 L381.04 243.96 L384.38 244.63 L385.72 246.64 L378.36 344.26 L374.35 344.93 L352.96 330.22 L350.28 330.22 L222.57 458.60 L223.24 461.28 L243.96 471.98 L250.65 473.98 L262.69 473.98 L270.04 471.98 L433.86 387.73 L443.22 379.70 L448.57 371.68 L451.25 362.32 L451.25 147.68 L447.90 136.98 L439.21 126.95 Z
    M369.00 90.17 L334.23 72.79 L322.20 72.12 L315.51 73.46 L150.35 157.71 L138.99 164.39 L130.29 173.76 L126.28 181.11 L123.61 190.47 L123.61 394.41 L127.62 405.78 L136.31 415.14 L162.39 429.18 L165.73 429.18 L166.40 427.84 L166.40 222.57 L169.07 211.20 L175.09 199.83 L184.45 189.80 L194.48 183.12 L369.00 94.19 L370.34 92.18 Z
    M299.46 54.07 L266.70 38.02 L250.65 37.35 L243.96 39.36 L85.49 120.26 L74.79 126.95 L66.77 135.64 L62.09 144.33 L60.08 152.36 L60.08 361.65 L63.43 371.68 L74.13 383.04 L99.53 396.42 L102.21 396.42 L102.88 395.08 L102.88 181.78 L106.22 170.41 L110.23 163.06 L119.59 152.36 L128.96 145.67 L300.13 58.08 L300.80 55.40 Z" fill="url(#g)" fill-rule="evenodd" clip-rule="evenodd"/>
</svg>
