<svg xmlns="http://www.w3.org/2000/svg" viewBox="0 0 96 96" role="img" aria-labelledby="title desc">
  <title id="title">WrapGuard logo</title>
  <desc id="desc">A shield wrapped by a network path.</desc>
  <defs>
    <linearGradient id="wrapguard-bg" x1="10" y1="10" x2="86" y2="86" gradientUnits="userSpaceOnUse">
      <stop offset="0" stop-color="#071923" />
      <stop offset="1" stop-color="#0f3f43" />
    </linearGradient>
    <linearGradient id="wrapguard-line" x1="20" y1="72" x2="76" y2="24" gradientUnits="userSpaceOnUse">
      <stop offset="0" stop-color="#58f0d3" />
      <stop offset="1" stop-color="#8bb8e8" />
    </linearGradient>
  </defs>
  <rect width="96" height="96" rx="22" fill="url(#wrapguard-bg)" />
  <path
    d="M48 17 72 27v18c0 16.8-9.7 27.8-24 34-14.3-6.2-24-17.2-24-34V27l24-10Z"
    fill="#ffffff"
    opacity=".1"
    stroke="#dffcf7"
    stroke-width="4"
    stroke-linejoin="round"
  />
  <path
    d="M26 61c14 7.5 30.8 3.9 42-8.9 5.5-6.3 5.8-14.1.4-18.7-6.1-5.2-17.2-2.3-24.9 6.6-4.8 5.5-8.4 6.6-11.8 3.8-3.7-3.2-2.9-8.2 1.5-12.8 7.5-7.8 20-9.2 31.2-4.2"
    fill="none"
    stroke="url(#wrapguard-line)"
    stroke-width="6"
    stroke-linecap="round"
  />
  <circle cx="26" cy="61" r="4.8" fill="#58f0d3" />
  <circle cx="64" cy="27" r="4.8" fill="#8bb8e8" />
</svg>
