<svg xmlns="http://www.w3.org/2000/svg" viewBox="130 170 1360 205" width="240" height="80" role="img" aria-labelledby="title"><title id="title">Checkatrade logo</title><g fill="#eb1f40"><path d="M615.68,369q-30.88,0-46.95-18t-16.06-51.64q0-34.28,16.8-52.7T618,228.26A91.25,91.25,0,0,1,656.79,237l-16.39,19.4c-11.71-3.6-14.67-4-22.62-4q-35.32,0-35.33,46.8,0,22.83,8.81,34.33T617,344.94a74.06,74.06,0,0,0,36.55-9.58v25.18A57.24,57.24,0,0,1,637,367.05a99.65,99.65,0,0,1-21.36,2"/><path d="M696.89,220.17c1.11-1.17,2.07-2,3.12-3.07V175.45l-28.67,13.34v61.69c.9-1.14,1.86-2.34,2.73-3.41Q689.18,228.37,696.89,220.17Z"/><path d="M735.32 289.06 790.09 230.72 756.75 230.72 715.64 274.44 699.27 294.83 698.53 294.83 700.01 268.67 700.01 261.36 671.34 294.41 671.34 366.56 700.01 366.56 700.01 320.01 715.88 306.99 759.57 366.56 793.54 366.56 735.32 289.06"/><path d="M226.22,209.59q-25.36,0-39.88,17.94T171.82,277q0,33,14,50T226.22,344a106.68,106.68,0,0,0,22.15-2.27q10.69-2.28,22.27-5.84V361q-21.17,8-48,8-39.51,0-60.68-23.88t-21.16-68.35q0-28,10.28-49a73.16,73.16,0,0,1,29.72-32.18q19.44-11.18,45.65-11.17a113.55,113.55,0,0,1,51,11.54L266.83,220.4a157.38,157.38,0,0,0-19.26-7.55,69.49,69.49,0,0,0-21.35-3.26"/><path d="M407.28,366.56h-29V283q0-15.72-6.34-23.46t-20.11-7.73q-18.22,0-26.77,10.86t-8.56,36.42v67.43H287.53V188.79l28.92-13.34V224A224.88,224.88,0,0,1,315,248.9h1.85a40.12,40.12,0,0,1,16.43-15.24q10.51-5.39,24.55-5.4,49.47,0,49.48,49.75Z"/><path d="M481.84,250.12q-13.79,0-22.08,8.72t-9.91,25.43h61.78q-.25-16.83-8.12-25.49t-21.67-8.66M487.14,369q-31.75,0-49.66-18.48t-17.91-50.91q0-33.28,16.61-52.32t45.66-19q27,0,42.59,16.34t15.63,45v15.6H449.35q.63,19.77,10.72,30.4t28.42,10.62A104.74,104.74,0,0,0,511,343.9a118.19,118.19,0,0,0,22.34-7.55V359.8a88.73,88.73,0,0,1-21.41,7.12A131.76,131.76,0,0,1,487.14,369"/><path d="M842.44,345.91q15.73,0,25.28-8.78t9.54-24.63V300.72l-17.47.73q-20.44.74-29.72,6.81t-9.3,18.62q0,9.08,5.41,14.06t16.26,5m43.07,19.65-5.78-18.91h-1q-9.84,12.41-19.81,16.88T833.33,368q-20.07,0-31.32-10.81t-11.27-30.58q0-21,15.63-31.69T854,283.27l23.5-.74v-7.24q0-13-6.08-19.47t-18.89-6.45a65.28,65.28,0,0,0-20.06,3.08A151.33,151.33,0,0,0,814,259.69l-9.35-20.63a101.1,101.1,0,0,1,24.24-8.79,112.33,112.33,0,0,1,24.86-3q26,0,39.21,11.3t13.22,35.5v91.5Z"/></g><g fill="#0058a2"><path d="M981.13,345.68a70.81,70.81,0,0,0,21.17-3.31V364.1a58.09,58.09,0,0,1-12.36,3.5,85.61,85.61,0,0,1-15.7,1.42q-41.1,0-41.11-43.24v-73.2H914.56V239.8l19.92-10.56,9.86-28.73h17.84v30.21h38.76v21.86H962.18v72.71q0,10.44,5.23,15.42t13.72,5"/><path d="M1081.4,228.26a68.9,68.9,0,0,1,14.4,1.24L1093,256.39a54.9,54.9,0,0,0-12.8-1.47q-17.34,0-28.12,11.3t-10.77,29.35v71h-28.92V230.72H1035l3.82,23.95h1.48A53.82,53.82,0,0,1,1058,235.38a42.14,42.14,0,0,1,23.45-7.12"/><path d="M1142.7,346.91q15.75,0,25.29-8.78t9.54-24.63V301.71l-17.48.73q-20.43.75-29.72,6.82t-9.3,18.61q0,9.09,5.42,14.07t16.25,5m43.07,19.65L1180,347.65h-1q-9.84,12.41-19.81,16.88t-25.6,4.48q-20.07,0-31.32-10.8T1091,327.63q0-21,15.63-31.69t47.62-11.67l23.51-.74v-7.25q0-13-6.09-19.46t-18.89-6.45a65.07,65.07,0,0,0-20.06,3.08,150.51,150.51,0,0,0-18.46,7.23l-9.35-20.63a101.12,101.12,0,0,1,24.25-8.78,112.05,112.05,0,0,1,24.86-3q26,0,39.19,11.3t13.23,35.5v91.5Z"/><path d="M1280.68,345.67q17.85,0,26-10t8.37-32.49v-4.05q0-25.68-8.37-36.47t-26.21-10.82q-15.27,0-23.51,12.34t-8.25,35.2q0,22.61,8,34.44t24,11.85M1272.93,369q-25.48,0-39.75-18.42t-14.28-51.71q0-33.4,14.46-52t40.06-18.61q26.82,0,40.86,19.77h1.48a171.87,171.87,0,0,1-2.1-23.08V188.79l29-13.34V366.56h-22.64l-5-17.81h-1.36Q1299.77,369,1272.93,369"/><path d="M1417.4,250.12q-13.79,0-22.09,8.72t-9.91,25.43h61.79q-.26-16.83-8.13-25.49t-21.66-8.66M1422.69,369q-31.74,0-49.66-18.48t-17.9-50.91q0-33.28,16.62-52.32t45.65-19q27,0,42.58,16.34t15.63,45v15.6h-90.7q.61,19.77,10.71,30.4t28.43,10.62a104.71,104.71,0,0,0,22.45-2.27,118.19,118.19,0,0,0,22.34-7.55V359.8a88.59,88.59,0,0,1-21.41,7.12,131.76,131.76,0,0,1-24.74,2.09"/><path d="M616.68,271.56a6.94,6.94,0,0,0-4.8-.24C601,275,597.21,281.79,598.22,291.5c1.73,16.62,4.44,23.38,5.59,27.05,1.41,4.46,7,9.8,12.83,9.8,4.46,0,10.93-.58,21.72-12.28L747.77,192.18c-.51.43.08.09-.07.09l.07-.09a116.43,116.43,0,0,0-22.12,1.28,37.33,37.33,0,0,0-11.85,4.66c-9.56,5.48-85.83,95.62-87.87,95.62-3.53,0-4.42-9-5.26-15a11,11,0,0,0-2-5.54A6.85,6.85,0,0,0,616.68,271.56Z"/></g></svg>
