<svg xmlns="http://www.w3.org/2000/svg" viewBox="0 0 130 40" width="240" height="80" role="img" aria-labelledby="title"><title id="title">The Legal 500 logo</title><g fill="#ffffff"><path d="M15.0042 31.4452H0.03479V31.0627C2.3612 31.0627 2.49804 29.6286 2.49804 27.2702V12.4187C2.49804 10.0603 2.3612 8.6261 0.03479 8.6261V8.24365H7.97194V8.6261C5.64554 8.6261 5.50869 10.0603 5.50869 12.4187V29.0549C5.50869 30.0429 5.8166 30.5528 6.84295 30.5528H9.23778C12.9327 30.5528 13.3278 29.8517 15.4489 25.8041H15.8595L15.0042 31.4452Z"/><path d="M30.6604 27.4295L31.2762 27.7801C30.0788 29.5648 27.9919 31.8276 24.3654 31.8276C19.8152 31.8276 17.0441 28.0988 17.0441 23.382C17.0441 18.0916 20.7047 14.3627 25.1523 14.3627C28.8472 14.3627 31.5157 16.8486 31.242 21.0555H20.0205C19.9863 21.4379 19.9521 21.8204 19.9521 22.2347C19.9521 26.6646 21.868 30.0747 25.6655 30.0747C27.9919 30.0747 29.5656 28.7043 30.6604 27.4295ZM25.0154 15.1914C22.3811 15.1914 20.7047 17.2948 20.1574 20.0994H28.2998C28.5393 16.9442 27.5129 15.1914 25.0154 15.1914Z"/><path d="M36.6493 28.0032H42.1079C45.7685 28.0032 47.7186 29.3099 47.7186 32.0507C47.7186 36.4169 42.5526 39.094 38.6399 39.094C34.6029 39.094 32.4755 37.0862 32.4755 34.4728C32.4755 33.0068 33.2966 31.987 34.6651 31.0309L35.0756 30.744H35.8967C35.0414 31.5089 34.7335 32.465 34.7335 33.5167C34.7335 36.162 36.6898 37.7236 40.2821 37.7236C42.9974 37.7236 45.8027 36.0345 45.8027 33.453C45.8027 31.5726 44.5027 30.3934 41.9026 30.3934H35.794C33.9124 30.3934 33.0913 29.4692 33.0913 28.3538C33.0913 27.0471 34.0835 26.1547 36.1362 25.0711C34.1177 24.2106 32.8518 22.4259 32.8518 20.0675C32.8518 16.6255 35.5888 14.3627 39.3521 14.3627C40.5495 14.3627 41.6785 14.5858 42.6022 15.0001L48.5551 14.5221L47.9393 16.2749L44.0733 15.9562C45.1339 16.9442 45.7497 18.2828 45.7497 19.9719C45.7497 23.4139 43.0812 25.6767 39.2837 25.6767C38.4626 25.6767 37.7099 25.581 36.9915 25.3898C35.7598 26.1547 35.4177 26.6009 35.4177 27.1108C35.4177 27.6207 35.7941 28.0032 36.6493 28.0032ZM39.3179 15.1914C36.8546 15.1914 35.5888 17.008 35.5888 20.0038C35.5888 22.9996 36.8204 24.848 39.3179 24.848C41.7811 24.848 43.0128 22.9996 43.0128 20.0038C43.0128 17.008 41.7811 15.1914 39.3179 15.1914Z"/><path d="M63.1955 29.5648L63.6745 29.9791C63.1271 30.7122 61.9981 31.8276 60.4586 31.8276C58.8506 31.8276 58.4059 30.4891 58.3375 29.3417C56.9006 30.9034 54.512 31.8276 52.6304 31.8276C50.3039 31.8276 48.6618 29.9908 48.6618 27.9193C48.6618 25.529 50.5092 23.7443 54.6831 22.6288L58.2006 21.7683V19.94C58.2006 19.0158 57.9332 15.9244 54.5804 15.9244C52.3567 15.9244 50.7829 17.2948 49.7908 19.0795L49.1065 18.8246C49.6539 17.1036 52.0425 14.3627 56.0111 14.3627C59.3296 14.3627 60.9376 16.498 60.9376 19.4938V27.9713C60.9376 29.023 60.9376 30.1385 61.9981 30.1385C62.5113 30.1385 62.9219 29.8198 63.1955 29.5648ZM54.1699 30.2341C55.5726 30.2341 57.2769 29.4055 58.2006 28.6406V22.6288L55.5041 23.3618C53.1777 24.0311 51.4329 24.8597 51.4329 27.1225C51.4329 28.8435 52.5961 30.2341 54.1699 30.2341Z"/><path d="M69.9166 31.4452H64.1348V31.0627C65.5375 31.0627 65.6401 29.9791 65.6401 27.9394V11.5406C65.6401 9.50094 65.0585 8.83166 63.8953 8.54483V8.16239L68.1376 7.27002H68.4113V27.9394C68.4113 29.9791 68.5139 31.0627 69.9166 31.0627V31.4452Z"/><path d="M75.8621 16.2664L76.1358 16.2983C83.765 16.9357 87.2546 19.804 87.2546 24.2658C87.2546 28.8551 83.3545 31.9784 77.8806 31.9784C75.9305 31.9784 73.5015 31.596 72.2698 31.1498L72.7146 26.6242H73.3304C73.8094 28.0584 75.2121 30.6399 78.0859 30.6399C80.686 30.6399 82.6702 29.1738 82.6702 26.4967C82.6702 23.5647 80.3096 21.4613 75.1436 21.0151L73.3304 20.8557L74.8015 8.01202C78.0517 8.58569 80.5149 8.71317 82.2255 8.71317C85.0993 8.71317 85.8862 8.29886 86.5362 7.8208H87.152C85.6467 12.3782 83.6624 13.6212 79.9333 13.6212C79.1464 13.6212 77.8122 13.5574 76.2042 13.3662L75.8621 16.2664Z"/><path d="M98.6846 31.9784C92.4238 31.9784 89.0027 27.3254 89.0027 20.059C89.0027 12.92 92.5607 8.01202 98.753 8.01202C104.98 8.01202 108.435 12.6651 108.435 19.9315C108.435 27.0704 104.877 31.9784 98.6846 31.9784ZM98.7188 30.6399C101.319 30.6399 101.866 26.6242 101.866 19.9952C101.866 13.5574 101.285 9.35057 98.7188 9.35057C96.1187 9.35057 95.5713 13.3662 95.5713 19.9952C95.5713 26.433 96.1529 30.6399 98.7188 30.6399Z"/><path d="M120.185 31.9784C113.924 31.9784 110.503 27.3254 110.503 20.059C110.503 12.92 114.061 8.01202 120.253 8.01202C126.48 8.01202 129.935 12.6651 129.935 19.9315C129.935 27.0704 126.377 31.9784 120.185 31.9784ZM120.219 30.6399C122.819 30.6399 123.366 26.6242 123.366 19.9952C123.366 13.5574 122.785 9.35057 120.219 9.35057C117.619 9.35057 117.071 13.3662 117.071 19.9952C117.071 26.433 117.653 30.6399 120.219 30.6399Z"/></g></svg>
